NahuatlOne.v2.ufo
<glyph name="period" format="1">
  <advance width="432"/>
  <unicode hex="002E"/>
  <outline>
    <contour>
      <point x="342" y="143" type="curve" smooth="yes"/>
      <point x="342" y="73"/>
      <point x="286" y="17"/>
      <point x="216" y="17" type="curve" smooth="yes"/>
      <point x="146" y="17"/>
      <point x="90" y="73"/>
      <point x="90" y="143" type="curve" smooth="yes"/>
      <point x="90" y="213"/>
      <point x="146" y="269"/>
      <point x="216" y="269" type="curve" smooth="yes"/>
      <point x="286" y="269"/>
      <point x="342" y="213"/>
    </contour>
  </outline>
</glyph>
<glyph name="two" format="1">
  <advance width="1072"/>
  <unicode hex="0032"/>
  <outline>
    <contour>
      <point x="835" y="919" type="curve" smooth="yes"/>
      <point x="835" y="1052"/>
      <point x="681" y="1132"/>
      <point x="546" y="1132" type="curve" smooth="yes"/>
      <point x="323" y="1132"/>
      <point x="214" y="958"/>
      <point x="214" y="958" type="curve"/>
      <point x="90" y="1036" type="line"/>
      <point x="90" y="1036"/>
      <point x="245" y="1279"/>
      <point x="546" y="1279" type="curve" smooth="yes"/>
      <point x="763" y="1279"/>
      <point x="982" y="1140"/>
      <point x="982" y="919" type="curve" smooth="yes"/>
      <point x="982" y="662"/>
      <point x="752" y="588"/>
      <point x="572" y="509" type="curve" smooth="yes"/>
      <point x="408" y="437"/>
      <point x="277" y="358"/>
      <point x="254" y="145" type="curve"/>
      <point x="966" y="145" type="line"/>
      <point x="966" y="-2" type="line"/>
      <point x="103" y="-2" type="line"/>
      <point x="103" y="72" type="line" smooth="yes"/>
      <point x="103" y="244"/>
      <point x="156" y="372"/>
      <point x="236" y="462" type="curve" smooth="yes"/>
      <point x="316" y="552"/>
      <point x="419" y="602"/>
      <point x="513" y="643" type="curve" smooth="yes"/>
      <point x="607" y="684"/>
      <point x="695" y="718"/>
      <point x="751" y="759" type="curve" smooth="yes"/>
      <point x="807" y="800"/>
      <point x="835" y="836"/>
    </contour>
  </outline>
</glyph>
<glyph name="six" format="1">
  <advance width="1141"/>
  <unicode hex="0036"/>
  <outline>
    <contour>
      <point x="1051" y="326" type="curve" smooth="yes"/>
      <point x="1051" y="83"/>
      <point x="845" y="-59"/>
      <point x="587" y="-59" type="curve" smooth="yes"/>
      <point x="402" y="-59"/>
      <point x="267" y="9"/>
      <point x="190" y="124" type="curve" smooth="yes"/>
      <point x="114" y="238"/>
      <point x="90" y="384"/>
      <point x="90" y="542" type="curve" smooth="yes"/>
      <point x="90" y="933"/>
      <point x="424" y="1301"/>
      <point x="858" y="1301" type="curve"/>
      <point x="858" y="1154" type="line"/>
      <point x="517" y="1154"/>
      <point x="252" y="865"/>
      <point x="238" y="567" type="curve"/>
      <point x="324" y="651"/>
      <point x="465" y="715"/>
      <point x="605" y="715" type="curve" smooth="yes"/>
      <point x="851" y="715"/>
      <point x="1051" y="562"/>
    </contour>
    <contour>
      <point x="904" y="326" type="curve" smooth="yes"/>
      <point x="904" y="482"/>
      <point x="776" y="568"/>
      <point x="604" y="568" type="curve" smooth="yes"/>
      <point x="507" y="568"/>
      <point x="407" y="525"/>
      <point x="344" y="465" type="curve" smooth="yes"/>
      <point x="297" y="420"/>
      <point x="270" y="371"/>
      <point x="270" y="320" type="curve" smooth="yes"/>
      <point x="270" y="274"/>
      <point x="293" y="235"/>
      <point x="312" y="207" type="curve" smooth="yes"/>
      <point x="361" y="133"/>
      <point x="436" y="88"/>
      <point x="584" y="88" type="curve" smooth="yes"/>
      <point x="697" y="88"/>
      <point x="778" y="117"/>
      <point x="828" y="158" type="curve" smooth="yes"/>
      <point x="879" y="200"/>
      <point x="904" y="256"/>
    </contour>
  </outline>
</glyph>
<glyph name="eight" format="1">
  <advance width="1189"/>
  <unicode hex="0038"/>
  <outline>
    <contour>
      <point x="595" y="1295" type="curve" smooth="yes"/>
      <point x="804" y="1295"/>
      <point x="988" y="1156"/>
      <point x="988" y="965" type="curve" smooth="yes"/>
      <point x="988" y="865"/>
      <point x="938" y="780"/>
      <point x="860" y="721" type="curve"/>
      <point x="1002" y="649"/>
      <point x="1100" y="519"/>
      <point x="1100" y="364" type="curve" smooth="yes"/>
      <point x="1100" y="124"/>
      <point x="865" y="-55"/>
      <point x="595" y="-55" type="curve" smooth="yes"/>
      <point x="325" y="-55"/>
      <point x="90" y="124"/>
      <point x="90" y="364" type="curve" smooth="yes"/>
      <point x="90" y="519"/>
      <point x="188" y="649"/>
      <point x="330" y="721" type="curve"/>
      <point x="252" y="780"/>
      <point x="201" y="865"/>
      <point x="201" y="965" type="curve" smooth="yes"/>
      <point x="201" y="1156"/>
      <point x="386" y="1295"/>
    </contour>
    <contour>
      <point x="595" y="1148" type="curve" smooth="yes"/>
      <point x="450" y="1148"/>
      <point x="348" y="1057"/>
      <point x="348" y="965" type="curve" smooth="yes"/>
      <point x="348" y="877"/>
      <point x="442" y="790"/>
      <point x="595" y="790" type="curve" smooth="yes"/>
      <point x="748" y="790"/>
      <point x="841" y="877"/>
      <point x="841" y="965" type="curve" smooth="yes"/>
      <point x="841" y="1057"/>
      <point x="740" y="1148"/>
    </contour>
    <contour>
      <point x="595" y="628" type="curve" smooth="yes"/>
      <point x="379" y="628"/>
      <point x="237" y="501"/>
      <point x="237" y="364" type="curve" smooth="yes"/>
      <point x="237" y="223"/>
      <point x="389" y="92"/>
      <point x="595" y="92" type="curve" smooth="yes"/>
      <point x="801" y="92"/>
      <point x="953" y="223"/>
      <point x="953" y="364" type="curve" smooth="yes"/>
      <point x="953" y="501"/>
      <point x="811" y="628"/>
    </contour>
  </outline>
</glyph>
<glyph name="exclamdown" format="1">
  <advance width="432"/>
  <unicode hex="00A1"/>
  <outline>
    <contour>
      <point x="102" y="-871" type="line"/>
      <point x="144" y="242" type="line"/>
      <point x="288" y="242" type="line"/>
      <point x="330" y="-871" type="line"/>
    </contour>
    <contour>
      <point x="90" y="548" type="curve" smooth="yes"/>
      <point x="90" y="618"/>
      <point x="146" y="674"/>
      <point x="216" y="674" type="curve" smooth="yes"/>
      <point x="286" y="674"/>
      <point x="342" y="618"/>
      <point x="342" y="548" type="curve" smooth="yes"/>
      <point x="342" y="478"/>
      <point x="286" y="422"/>
      <point x="216" y="422" type="curve" smooth="yes"/>
      <point x="146" y="422"/>
      <point x="90" y="478"/>
    </contour>
  </outline>
</glyph>
<glyph name="guillemotleft" format="1">
  <advance width="946"/>
  <unicode hex="00AB"/>
  <outline>
    <contour>
      <point x="432" y="825" type="line"/>
      <point x="496" y="723" type="line"/>
      <point x="295" y="472" type="line"/>
      <point x="496" y="222" type="line"/>
      <point x="432" y="119" type="line"/>
      <point x="90" y="472" type="line"/>
    </contour>
    <contour>
      <point x="793" y="825" type="line"/>
      <point x="856" y="723" type="line"/>
      <point x="655" y="472" type="line"/>
      <point x="856" y="222" type="line"/>
      <point x="793" y="119" type="line"/>
      <point x="450" y="472" type="line"/>
    </contour>
  </outline>
</glyph>
<glyph name="guillemotright" format="1">
  <advance width="946"/>
  <unicode hex="00BB"/>
  <outline>
    <contour>
      <point x="154" y="825" type="line"/>
      <point x="496" y="472" type="line"/>
      <point x="154" y="119" type="line"/>
      <point x="90" y="222" type="line"/>
      <point x="291" y="472" type="line"/>
      <point x="90" y="723" type="line"/>
    </contour>
    <contour>
      <point x="514" y="825" type="line"/>
      <point x="856" y="472" type="line"/>
      <point x="514" y="119" type="line"/>
      <point x="450" y="222" type="line"/>
      <point x="651" y="472" type="line"/>
      <point x="450" y="723" type="line"/>
    </contour>
  </outline>
</glyph>
<glyph name="aa.base" format="1">
  <advance width="1254"/>
  <unicode hex="ED90"/>
  <outline>
    <contour>
      <point x="622" y="-70" type="move" name="subjoined_consonants"/>
    </contour>
    <contour>
      <point x="622" y="1020" type="move" name="vowel_signs"/>
    </contour>
    <contour>
      <point x="567" y="947" type="curve" smooth="yes"/>
      <point x="657" y="945"/>
      <point x="748" y="924"/>
      <point x="825" y="875" type="curve"/>
      <point x="831" y="882"/>
      <point x="825" y="909"/>
      <point x="827" y="924" type="curve"/>
      <point x="876" y="924"/>
      <point x="925" y="924"/>
      <point x="974" y="924" type="curve"/>
      <point x="974" y="887"/>
      <point x="974" y="851"/>
      <point x="974" y="814" type="curve" smooth="yes"/>
      <point x="974.227" y="774.808"/>
      <point x="974.299" y="735.514"/>
      <point x="974.299" y="696.164" type="curve" smooth="yes"/>
      <point x="974.299" y="625.978"/>
      <point x="974.068" y="555.614"/>
      <point x="974.068" y="485.335" type="curve" smooth="yes"/>
      <point x="974.068" y="421.085"/>
      <point x="974.261" y="356.906"/>
      <point x="975" y="293" type="curve"/>
      <point x="983" y="200"/>
      <point x="1081" y="148"/>
      <point x="1165" y="142" type="curve"/>
      <point x="1160" y="93"/>
      <point x="1155" y="45"/>
      <point x="1150" y="-4" type="curve"/>
      <point x="1056" y="5"/>
      <point x="961" y="44"/>
      <point x="899" y="118" type="curve"/>
      <point x="834" y="51"/>
      <point x="744" y="15"/>
      <point x="653" y="1" type="curve" smooth="yes"/>
      <point x="626.185" y="-3.64101"/>
      <point x="599.046" y="-5.91835"/>
      <point x="571.936" y="-5.91835" type="curve" smooth="yes"/>
      <point x="441.332" y="-5.91835"/>
      <point x="311.436" y="46.9392"/>
      <point x="222" y="143" type="curve"/>
      <point x="135.91" y="230.395"/>
      <point x="90.2288" y="351.819"/>
      <point x="90.2288" y="473.149" type="curve" smooth="yes"/>
      <point x="90.2288" y="537.851"/>
      <point x="103.219" y="602.526"/>
      <point x="130" y="662" type="curve"/>
      <point x="200.015" y="828.285"/>
      <point x="371.209" y="947.289"/>
      <point x="551.631" y="947.289" type="curve" smooth="yes"/>
      <point x="556.747" y="947.289"/>
      <point x="561.871" y="947.193"/>
    </contour>
    <contour>
      <point x="564" y="799" type="curve" smooth="yes"/>
      <point x="561.071" y="799.089"/>
      <point x="558.143" y="799.133"/>
      <point x="555.217" y="799.133" type="curve" smooth="yes"/>
      <point x="459.235" y="799.133"/>
      <point x="365.225" y="751.663"/>
      <point x="307" y="675" type="curve" smooth="yes"/>
      <point x="260.3" y="617.092"/>
      <point x="237.153" y="543.917"/>
      <point x="237.153" y="470.856" type="curve" smooth="yes"/>
      <point x="237.153" y="387.469"/>
      <point x="267.304" y="304.229"/>
      <point x="327" y="244" type="curve"/>
      <point x="390.21" y="175.645"/>
      <point x="481.513" y="141.864"/>
      <point x="573.112" y="141.864" type="curve" smooth="yes"/>
      <point x="606.137" y="141.864"/>
      <point x="639.2" y="146.255"/>
      <point x="671" y="155" type="curve" smooth="yes"/>
      <point x="735" y="172"/>
      <point x="811" y="207"/>
      <point x="826" y="279" type="curve"/>
      <point x="826.739" y="305.597"/>
      <point x="826.932" y="332.466"/>
      <point x="826.932" y="359.407" type="curve" smooth="yes"/>
      <point x="826.932" y="388.876"/>
      <point x="826.701" y="418.43"/>
      <point x="826.701" y="447.806" type="curve" smooth="yes"/>
      <point x="826.701" y="464.275"/>
      <point x="826.773" y="480.689"/>
      <point x="827" y="497" type="curve" smooth="yes"/>
      <point x="826.689" y="503.942"/>
      <point x="826.572" y="510.927"/>
      <point x="826.572" y="517.939" type="curve" smooth="yes"/>
      <point x="826.572" y="539.744"/>
      <point x="827.709" y="561.814"/>
      <point x="827.709" y="583.681" type="curve" smooth="yes"/>
      <point x="827.709" y="622.651"/>
      <point x="824.097" y="660.974"/>
      <point x="804" y="696" type="curve"/>
      <point x="751" y="773"/>
      <point x="652" y="795"/>
    </contour>
  </outline>
</glyph>
<glyph name="ii.base" format="1">
  <advance width="1289"/>
  <unicode hex="ED92"/>
  <outline>
    <contour>
      <point x="645" y="-70" type="move" name="subjoined_consonants"/>
    </contour>
    <contour>
      <point x="645" y="1020" type="move" name="vowel_signs"/>
    </contour>
    <contour>
      <point x="645" y="948" type="curve" smooth="yes"/>
      <point x="951" y="948"/>
      <point x="1200" y="699"/>
      <point x="1200" y="393" type="curve" smooth="yes"/>
      <point x="1200" y="392" type="line"/>
      <point x="1200" y="275"/>
      <point x="1163" y="162"/>
      <point x="1094" y="67" type="curve" smooth="yes"/>
      <point x="1042" y="-4" type="line"/>
      <point x="981" y="59" type="line" smooth="yes"/>
      <point x="886" y="158"/>
      <point x="778" y="215"/>
      <point x="645" y="215" type="curve" smooth="yes"/>
      <point x="512" y="215"/>
      <point x="397" y="157"/>
      <point x="310" y="61" type="curve" smooth="yes"/>
      <point x="249" y="-6" type="line"/>
      <point x="196" y="67" type="line" smooth="yes"/>
      <point x="127" y="161"/>
      <point x="90" y="275"/>
      <point x="90" y="392" type="curve" smooth="yes"/>
      <point x="90" y="393" type="line" smooth="yes"/>
      <point x="90" y="699"/>
      <point x="339" y="948"/>
    </contour>
    <contour>
      <point x="645" y="800" type="curve" smooth="yes"/>
      <point x="419" y="800"/>
      <point x="237" y="619"/>
      <point x="237" y="393" type="curve" smooth="yes"/>
      <point x="237" y="336"/>
      <point x="250" y="280"/>
      <point x="273" y="228" type="curve"/>
      <point x="376" y="312"/>
      <point x="504" y="362"/>
      <point x="645" y="362" type="curve" smooth="yes"/>
      <point x="787" y="362"/>
      <point x="913" y="310"/>
      <point x="1017" y="226" type="curve"/>
      <point x="1040" y="278"/>
      <point x="1053" y="335"/>
      <point x="1053" y="393" type="curve" smooth="yes"/>
      <point x="1053" y="619"/>
      <point x="871" y="800"/>
    </contour>
  </outline>
</glyph>
<glyph name="uu.base" format="1">
  <advance width="1303"/>
  <unicode hex="ED94"/>
  <outline>
    <contour>
      <point x="602" y="-70" type="move" name="subjoined_consonants"/>
    </contour>
    <contour>
      <point x="602" y="1020" type="move" name="vowel_signs"/>
    </contour>
    <contour>
      <point x="876" y="924" type="line"/>
      <point x="1023" y="924" type="line"/>
      <point x="1024" y="293" type="line"/>
      <point x="1032" y="200"/>
      <point x="1129" y="148"/>
      <point x="1213" y="142" type="curve"/>
      <point x="1208" y="93"/>
      <point x="1203" y="45"/>
      <point x="1198" y="-4" type="curve"/>
      <point x="1104" y="5"/>
      <point x="1010" y="44"/>
      <point x="948" y="118" type="curve"/>
      <point x="883" y="51"/>
      <point x="792" y="15"/>
      <point x="701" y="1" type="curve" smooth="yes"/>
      <point x="675" y="-3"/>
      <point x="647" y="-5"/>
      <point x="619" y="-5" type="curve" smooth="yes"/>
      <point x="479" y="-5"/>
      <point x="320" y="48"/>
      <point x="230" y="145" type="curve"/>
      <point x="131" y="243"/>
      <point x="90" y="378"/>
      <point x="90" y="508" type="curve" smooth="yes"/>
      <point x="90" y="699"/>
      <point x="168" y="840"/>
      <point x="280" y="928" type="curve"/>
      <point x="368" y="811" type="line"/>
      <point x="290" y="748"/>
      <point x="236" y="638"/>
      <point x="236" y="507" type="curve" smooth="yes"/>
      <point x="236" y="411"/>
      <point x="266" y="313"/>
      <point x="336" y="246" type="curve"/>
      <point x="399" y="177"/>
      <point x="513" y="142"/>
      <point x="617" y="142" type="curve" smooth="yes"/>
      <point x="653" y="142"/>
      <point x="689" y="146"/>
      <point x="720" y="155" type="curve" smooth="yes"/>
      <point x="784" y="172"/>
      <point x="860" y="207"/>
      <point x="875" y="279" type="curve"/>
      <point x="876" y="308"/>
      <point x="876" y="337"/>
      <point x="876" y="366" type="curve" smooth="yes"/>
    </contour>
  </outline>
</glyph>
<glyph name="long_vowel_dot" format="1">
  <advance width="0"/>
  <unicode hex="ED95"/>
  <outline>
    <contour>
      <point x="-143" y="1020" type="move" name="_vowel_signs"/>
    </contour>
    <contour>
      <point x="-18" y="1331" type="curve" smooth="yes"/>
      <point x="-18" y="1261"/>
      <point x="-74" y="1205"/>
      <point x="-144" y="1205" type="curve" smooth="yes"/>
      <point x="-214" y="1205"/>
      <point x="-270" y="1261"/>
      <point x="-270" y="1331" type="curve" smooth="yes"/>
      <point x="-270" y="1401"/>
      <point x="-214" y="1457"/>
      <point x="-144" y="1457" type="curve" smooth="yes"/>
      <point x="-74" y="1457"/>
      <point x="-18" y="1401"/>
    </contour>
  </outline>
</glyph>
<glyph name="uu.vs" format="1">
  <advance width="0"/>
  <unicode hex="EDA4"/>
  <outline>
    <contour>
      <point x="-251" y="1020" type="move" name="_vowel_signs"/>
    </contour>
    <contour>
      <point x="-500" y="1433" type="line"/>
      <point x="-353" y="1433" type="line"/>
      <point x="-353" y="1321" type="line" smooth="yes"/>
      <point x="-353" y="1264"/>
      <point x="-309" y="1220"/>
      <point x="-252" y="1220" type="curve" smooth="yes"/>
      <point x="-195" y="1220"/>
      <point x="-151" y="1264"/>
      <point x="-151" y="1321" type="curve" smooth="yes"/>
      <point x="-151" y="1433" type="line"/>
      <point x="-4" y="1433" type="line"/>
      <point x="-4" y="1321" type="line" smooth="yes"/>
      <point x="-4" y="1185"/>
      <point x="-116" y="1073"/>
      <point x="-252" y="1073" type="curve" smooth="yes"/>
      <point x="-388" y="1073"/>
      <point x="-500" y="1185"/>
      <point x="-500" y="1321" type="curve" smooth="yes"/>
    </contour>
  </outline>
</glyph>
<glyph name="ai.vs" format="1">
  <advance width="0"/>
  <unicode hex="EDA6"/>
  <outline>
    <contour>
      <point x="-378" y="1020" type="move" name="_vowel_signs"/>
    </contour>
    <contour>
      <point x="-551" y="1569" type="curve"/>
      <point x="-496" y="1569"/>
      <point x="-469" y="1559"/>
      <point x="-439" y="1546" type="curve"/>
      <point x="-294" y="1546" type="line"/>
      <point x="-294" y="1321" type="line"/>
      <point x="-294" y="1320"/>
      <point x="-294" y="1320"/>
      <point x="-294" y="1319" type="curve" smooth="yes"/>
      <point x="-294" y="1281"/>
      <point x="-285" y="1253"/>
      <point x="-276" y="1240" type="curve" smooth="yes"/>
      <point x="-267" y="1227"/>
      <point x="-259" y="1220"/>
      <point x="-222" y="1220" type="curve" smooth="yes"/>
      <point x="-184" y="1220"/>
      <point x="-174" y="1228"/>
      <point x="-166" y="1238" type="curve" smooth="yes"/>
      <point x="-158" y="1248"/>
      <point x="-150" y="1269"/>
      <point x="-150" y="1300" type="curve" smooth="yes"/>
      <point x="-150" y="1546" type="line"/>
      <point x="-3" y="1546" type="line"/>
      <point x="-3" y="1300" type="line" smooth="yes"/>
      <point x="-3" y="1247"/>
      <point x="-15" y="1191"/>
      <point x="-52" y="1145" type="curve" smooth="yes"/>
      <point x="-89" y="1099"/>
      <point x="-152" y="1073"/>
      <point x="-222" y="1073" type="curve" smooth="yes"/>
      <point x="-284" y="1073"/>
      <point x="-341" y="1096"/>
      <point x="-379" y="1135" type="curve"/>
      <point x="-423" y="1096"/>
      <point x="-480" y="1073"/>
      <point x="-542" y="1073" type="curve" smooth="yes"/>
      <point x="-678" y="1073"/>
      <point x="-790" y="1185"/>
      <point x="-790" y="1321" type="curve" smooth="yes"/>
      <point x="-790" y="1455"/>
      <point x="-691" y="1569"/>
    </contour>
    <contour>
      <point x="-541" y="1427" type="curve" smooth="yes"/>
      <point x="-599" y="1427"/>
      <point x="-646" y="1379"/>
      <point x="-646" y="1321" type="curve" smooth="yes"/>
      <point x="-646" y="1263"/>
      <point x="-599" y="1216"/>
      <point x="-541" y="1216" type="curve" smooth="yes"/>
      <point x="-483" y="1216"/>
      <point x="-435" y="1263"/>
      <point x="-435" y="1321" type="curve" smooth="yes"/>
      <point x="-435" y="1379"/>
      <point x="-483" y="1427"/>
    </contour>
  </outline>
</glyph>
<glyph name="eo.vs" format="1">
  <advance width="0"/>
  <unicode hex="EDA8"/>
  <outline>
    <contour>
      <point x="-358" y="1020" type="move" name="_vowel_signs"/>
    </contour>
    <contour>
      <point x="-355" y="1536" type="line"/>
      <point x="-2" y="1194" type="line"/>
      <point x="-104" y="1088" type="line"/>
      <point x="-355" y="1331" type="line"/>
      <point x="-606" y="1088" type="line"/>
      <point x="-708" y="1194" type="line"/>
    </contour>
  </outline>
</glyph>
<glyph name="diety.sign" format="1">
  <advance width="678"/>
  <unicode hex="EDAF"/>
  <outline>
    <contour>
      <point x="309" y="1561" type="line"/>
      <point x="386" y="1561"/>
      <point x="458" y="1540"/>
      <point x="510" y="1491" type="curve" smooth="yes"/>
      <point x="562" y="1442"/>
      <point x="589" y="1368"/>
      <point x="589" y="1288" type="curve" smooth="yes"/>
      <point x="589" y="-591" type="line" smooth="yes"/>
      <point x="589.018" y="-592.466"/>
      <point x="589.027" y="-593.929"/>
      <point x="589.027" y="-595.389" type="curve" smooth="yes"/>
      <point x="589.027" y="-675.638"/>
      <point x="562.071" y="-747.894"/>
      <point x="511" y="-797" type="curve" smooth="yes"/>
      <point x="458" y="-847"/>
      <point x="386" y="-868"/>
      <point x="309" y="-868" type="curve"/>
      <point x="309" y="-721" type="line"/>
      <point x="360" y="-721"/>
      <point x="391" y="-709"/>
      <point x="410" y="-691" type="curve" smooth="yes"/>
      <point x="428" y="-674"/>
      <point x="441" y="-648"/>
      <point x="441" y="-598" type="curve" smooth="yes"/>
      <point x="441" y="-596"/>
      <point x="441" y="-594"/>
      <point x="441" y="-592" type="curve" smooth="yes"/>
      <point x="441" y="-316"/>
      <point x="441" y="-40"/>
      <point x="441" y="236" type="curve"/>
      <point x="409" y="221"/>
      <point x="375" y="213"/>
      <point x="338" y="213" type="curve" smooth="yes"/>
      <point x="202" y="213"/>
      <point x="90" y="325"/>
      <point x="90" y="461" type="curve" smooth="yes"/>
      <point x="90" y="597"/>
      <point x="202" y="709"/>
      <point x="338" y="709" type="curve" smooth="yes"/>
      <point x="375" y="709"/>
      <point x="409" y="701"/>
      <point x="441" y="686" type="curve"/>
      <point x="441" y="1288" type="line" smooth="yes"/>
      <point x="441" y="1338"/>
      <point x="428" y="1366"/>
      <point x="409" y="1384" type="curve" smooth="yes"/>
      <point x="390" y="1402"/>
      <point x="359" y="1414"/>
      <point x="309" y="1414" type="curve"/>
    </contour>
    <contour>
      <point x="338" y="562" type="curve" smooth="yes"/>
      <point x="281" y="562"/>
      <point x="237" y="518"/>
      <point x="237" y="461" type="curve" smooth="yes"/>
      <point x="237" y="404"/>
      <point x="281" y="360"/>
      <point x="338" y="360" type="curve" smooth="yes"/>
      <point x="395" y="360"/>
      <point x="439" y="404"/>
      <point x="439" y="461" type="curve" smooth="yes"/>
      <point x="439" y="518"/>
      <point x="395" y="562"/>
    </contour>
  </outline>
</glyph>
<glyph name="ca" format="1">
  <advance width="1039"/>
  <unicode hex="EDB4"/>
  <outline>
    <contour>
      <point x="570" y="-70" type="move" name="subjoined_consonants"/>
    </contour>
    <contour>
      <point x="553" y="1020" type="move" name="vowel_signs"/>
    </contour>
    <contour>
      <point x="566" y="947" type="curve" smooth="yes"/>
      <point x="697" y="947"/>
      <point x="816" y="893"/>
      <point x="902" y="807" type="curve"/>
      <point x="798" y="703" type="line"/>
      <point x="738" y="763"/>
      <point x="657" y="799"/>
      <point x="566" y="799" type="curve" smooth="yes"/>
      <point x="384" y="799"/>
      <point x="237" y="653"/>
      <point x="237" y="471" type="curve" smooth="yes"/>
      <point x="237" y="289"/>
      <point x="384" y="142"/>
      <point x="566" y="142" type="curve" smooth="yes"/>
      <point x="700" y="142"/>
      <point x="747" y="180"/>
      <point x="853" y="272" type="curve"/>
      <point x="949" y="161" type="line"/>
      <point x="838" y="65"/>
      <point x="735" y="-5"/>
      <point x="566" y="-5" type="curve" smooth="yes"/>
      <point x="304" y="-5"/>
      <point x="90" y="209"/>
      <point x="90" y="471" type="curve" smooth="yes"/>
      <point x="90" y="733"/>
      <point x="304" y="947"/>
    </contour>
  </outline>
</glyph>
<glyph name="sa" format="1">
  <advance width="1497"/>
  <unicode hex="EDB9"/>
  <outline>
    <contour>
      <point x="760" y="-70" type="move" name="subjoined_consonants"/>
    </contour>
    <contour>
      <point x="743" y="1020" type="move" name="vowel_signs"/>
    </contour>
    <contour>
      <point x="90" y="471" type="curve" smooth="yes"/>
      <point x="90" y="712"/>
      <point x="225" y="969"/>
      <point x="486" y="969" type="curve" smooth="yes"/>
      <point x="686" y="969"/>
      <point x="842" y="807"/>
      <point x="842" y="599" type="curve" smooth="yes"/>
      <point x="842" y="555"/>
      <point x="834" y="508"/>
      <point x="819" y="461" type="curve" smooth="yes"/>
      <point x="808" y="427"/>
      <point x="803" y="394"/>
      <point x="803" y="364" type="curve" smooth="yes"/>
      <point x="803" y="227"/>
      <point x="907" y="141"/>
      <point x="1014" y="141" type="curve" smooth="yes"/>
      <point x="1183" y="141"/>
      <point x="1260" y="283"/>
      <point x="1260" y="459" type="curve" smooth="yes"/>
      <point x="1260" y="650"/>
      <point x="1095" y="851"/>
      <point x="1095" y="851" type="curve"/>
      <point x="1206" y="948" type="line"/>
      <point x="1206" y="948"/>
      <point x="1408" y="728"/>
      <point x="1408" y="459" type="curve" smooth="yes"/>
      <point x="1408" y="207"/>
      <point x="1265" y="-6"/>
      <point x="1014" y="-6" type="curve" smooth="yes"/>
      <point x="822" y="-6"/>
      <point x="658" y="160"/>
      <point x="658" y="372" type="curve" smooth="yes"/>
      <point x="658" y="415"/>
      <point x="664" y="460"/>
      <point x="679" y="506" type="curve" smooth="yes"/>
      <point x="690" y="539"/>
      <point x="695" y="571"/>
      <point x="695" y="601" type="curve" smooth="yes"/>
      <point x="695" y="727"/>
      <point x="608" y="822"/>
      <point x="486" y="822" type="curve" smooth="yes"/>
      <point x="391" y="822"/>
      <point x="338" y="778"/>
      <point x="297" y="708" type="curve" smooth="yes"/>
      <point x="256" y="638"/>
      <point x="237" y="541"/>
      <point x="237" y="471" type="curve" smooth="yes"/>
      <point x="237" y="268"/>
      <point x="370" y="81"/>
      <point x="370" y="81" type="curve"/>
      <point x="252" y="-6" type="line"/>
      <point x="252" y="-6"/>
      <point x="90" y="206"/>
    </contour>
  </outline>
</glyph>
<glyph name="ra" format="1">
  <advance width="1003"/>
  <unicode hex="EDC5"/>
  <outline>
    <contour>
      <point x="495" y="-70" type="move" name="subjoined_consonants"/>
    </contour>
    <contour>
      <point x="478" y="1020" type="move" name="vowel_signs"/>
    </contour>
    <contour>
      <point x="711" y="671" type="curve" smooth="yes"/>
      <point x="711" y="760"/>
      <point x="572" y="797"/>
      <point x="479" y="797" type="curve" smooth="yes"/>
      <point x="313" y="797"/>
      <point x="237" y="696"/>
      <point x="237" y="591" type="curve" smooth="yes"/>
      <point x="237" y="21" type="line"/>
      <point x="90" y="21" type="line"/>
      <point x="90" y="591" type="line" smooth="yes"/>
      <point x="90" y="774"/>
      <point x="246" y="945"/>
      <point x="479" y="945" type="curve" smooth="yes"/>
      <point x="657" y="945"/>
      <point x="858" y="856"/>
      <point x="858" y="671" type="curve" smooth="yes"/>
      <point x="858" y="595"/>
      <point x="819" y="529"/>
      <point x="768" y="497" type="curve" smooth="yes"/>
      <point x="717" y="465"/>
      <point x="663" y="456"/>
      <point x="616" y="448" type="curve" smooth="yes"/>
      <point x="563" y="439"/>
      <point x="518" y="437"/>
      <point x="497" y="422" type="curve"/>
      <point x="497" y="420" type="line" smooth="yes"/>
      <point x="497" y="387"/>
      <point x="513" y="354"/>
      <point x="549" y="318" type="curve" smooth="yes"/>
      <point x="585" y="282"/>
      <point x="638" y="247"/>
      <point x="693" y="219" type="curve" smooth="yes"/>
      <point x="802" y="162"/>
      <point x="914" y="131"/>
      <point x="914" y="131" type="curve"/>
      <point x="875" y="-11" type="line"/>
      <point x="723" y="30"/>
      <point x="350" y="175"/>
      <point x="350" y="420" type="curve" smooth="yes"/>
      <point x="350" y="493"/>
      <point x="401" y="542"/>
      <point x="453" y="563" type="curve" smooth="yes"/>
      <point x="527" y="592"/>
      <point x="634" y="586"/>
      <point x="689" y="621" type="curve" smooth="yes"/>
      <point x="706" y="632"/>
      <point x="711" y="634"/>
    </contour>
  </outline>
</glyph>
<glyph name="na.sub" format="1">
  <advance width="0"/>
  <unicode hex="EDD1"/>
  <outline>
    <contour>
      <point x="-531" y="-70" type="move" name="_subjoined_consonants"/>
    </contour>
    <contour>
      <point x="-552" y="-159" type="curve" smooth="yes"/>
      <point x="-366" y="-159"/>
      <point x="-232" y="-273"/>
      <point x="-178" y="-419" type="curve" smooth="yes"/>
      <point x="-155.236" y="-480.547"/>
      <point x="-144.379" y="-547.068"/>
      <point x="-144.379" y="-615.121" type="curve" smooth="yes"/>
      <point x="-144.379" y="-708.501"/>
      <point x="-164.822" y="-804.762"/>
      <point x="-203" y="-895" type="curve"/>
      <point x="-338" y="-838" type="line"/>
      <point x="-307.363" y="-766.322"/>
      <point x="-292.432" y="-688.295"/>
      <point x="-292.432" y="-615.702" type="curve" smooth="yes"/>
      <point x="-292.432" y="-562.712"/>
      <point x="-300.388" y="-512.617"/>
      <point x="-316" y="-470" type="curve" smooth="yes"/>
      <point x="-353" y="-369"/>
      <point x="-420" y="-306"/>
      <point x="-552" y="-306" type="curve" smooth="yes"/>
      <point x="-684" y="-306"/>
      <point x="-751" y="-369"/>
      <point x="-789" y="-470" type="curve" smooth="yes"/>
      <point x="-805.025" y="-512.593"/>
      <point x="-813.226" y="-562.655"/>
      <point x="-813.226" y="-615.537" type="curve" smooth="yes"/>
      <point x="-813.226" y="-688.053"/>
      <point x="-797.806" y="-765.871"/>
      <point x="-766" y="-837" type="curve"/>
      <point x="-900" y="-896" type="line"/>
      <point x="-939.938" y="-805.705"/>
      <point x="-960.78" y="-709.045"/>
      <point x="-960.78" y="-615.327" type="curve" smooth="yes"/>
      <point x="-960.78" y="-547.131"/>
      <point x="-949.744" y="-480.493"/>
      <point x="-927" y="-419" type="curve" smooth="yes"/>
      <point x="-873" y="-273"/>
      <point x="-738" y="-159"/>
    </contour>
  </outline>
</glyph>
<glyph name="la.sub" format="1">
  <advance width="0"/>
  <unicode hex="EDDC"/>
  <outline>
    <contour>
      <point x="-400" y="-70" type="move" name="_subjoined_consonants"/>
    </contour>
    <contour>
      <point x="-616" y="-429" type="curve" smooth="yes"/>
      <point x="-616" y="-299"/>
      <point x="-537" y="-160"/>
      <point x="-404" y="-160" type="curve" smooth="yes"/>
      <point x="-271" y="-160"/>
      <point x="-192" y="-299"/>
      <point x="-192" y="-429" type="curve" smooth="yes"/>
      <point x="-192" y="-524"/>
      <point x="-237" y="-604"/>
      <point x="-295" y="-670" type="curve"/>
      <point x="-212" y="-733"/>
      <point x="-132" y="-772"/>
      <point x="-132" y="-772" type="curve"/>
      <point x="-197" y="-904" type="line"/>
      <point x="-197" y="-904"/>
      <point x="-305" y="-850"/>
      <point x="-404" y="-771" type="curve"/>
      <point x="-502" y="-849"/>
      <point x="-613" y="-905"/>
      <point x="-613" y="-905" type="curve"/>
      <point x="-677" y="-772" type="line"/>
      <point x="-677" y="-772"/>
      <point x="-596" y="-733"/>
      <point x="-513" y="-670" type="curve"/>
      <point x="-571" y="-604"/>
      <point x="-616" y="-524"/>
    </contour>
    <contour>
      <point x="-340" y="-429" type="curve" smooth="yes"/>
      <point x="-340" y="-385"/>
      <point x="-365" y="-307"/>
      <point x="-404" y="-307" type="curve" smooth="yes"/>
      <point x="-443" y="-307"/>
      <point x="-469" y="-385"/>
      <point x="-469" y="-429" type="curve" smooth="yes"/>
      <point x="-469" y="-470"/>
      <point x="-443" y="-519"/>
      <point x="-404" y="-567" type="curve"/>
      <point x="-365" y="-520"/>
      <point x="-340" y="-471"/>
    </contour>
  </outline>
</glyph>
<glyph name="rra.sub" format="1">
  <advance width="0"/>
  <unicode hex="EDE6"/>
  <outline>
    <contour>
      <point x="-545" y="-70" type="move" name="_subjoined_consonants"/>
    </contour>
    <contour>
      <point x="-808" y="-906" type="curve" smooth="yes"/>
      <point x="-919" y="-906"/>
      <point x="-998" y="-818"/>
      <point x="-998" y="-705" type="curve" smooth="yes"/>
      <point x="-998" y="-193" type="line"/>
      <point x="-851" y="-193" type="line"/>
      <point x="-851" y="-705" type="line" smooth="yes"/>
      <point x="-851" y="-744"/>
      <point x="-841" y="-758"/>
      <point x="-809" y="-759" type="curve" smooth="yes"/>
      <point x="-793" y="-759"/>
      <point x="-789" y="-756"/>
      <point x="-784" y="-751" type="curve" smooth="yes"/>
      <point x="-779" y="-746"/>
      <point x="-773" y="-734"/>
      <point x="-773" y="-706" type="curve" smooth="yes"/>
      <point x="-773" y="-443" type="line" smooth="yes"/>
      <point x="-773" y="-296"/>
      <point x="-646" y="-160"/>
      <point x="-463" y="-160" type="curve" smooth="yes"/>
      <point x="-320" y="-160"/>
      <point x="-160" y="-233"/>
      <point x="-160" y="-383" type="curve" smooth="yes"/>
      <point x="-160" y="-445"/>
      <point x="-194" y="-502"/>
      <point x="-236" y="-529" type="curve" smooth="yes"/>
      <point x="-299" y="-569"/>
      <point x="-366" y="-564"/>
      <point x="-430" y="-582" type="curve"/>
      <point x="-427" y="-597"/>
      <point x="-418" y="-613"/>
      <point x="-398" y="-633" type="curve" smooth="yes"/>
      <point x="-374" y="-657"/>
      <point x="-335" y="-682"/>
      <point x="-295" y="-702" type="curve" smooth="yes"/>
      <point x="-215" y="-742"/>
      <point x="-134" y="-763"/>
      <point x="-134" y="-763" type="curve"/>
      <point x="-170" y="-906" type="line"/>
      <point x="-294" y="-875"/>
      <point x="-578" y="-766"/>
      <point x="-578" y="-571" type="curve" smooth="yes"/>
      <point x="-578" y="-509"/>
      <point x="-533" y="-464"/>
      <point x="-489" y="-446" type="curve" smooth="yes"/>
      <point x="-433" y="-424"/>
      <point x="-355" y="-430"/>
      <point x="-316" y="-405" type="curve" smooth="yes"/>
      <point x="-308" y="-400"/>
      <point x="-307" y="-406"/>
      <point x="-307" y="-383" type="curve" smooth="yes"/>
      <point x="-307" y="-329"/>
      <point x="-406" y="-307"/>
      <point x="-463" y="-307" type="curve" smooth="yes"/>
      <point x="-579" y="-307"/>
      <point x="-626" y="-375"/>
      <point x="-626" y="-443" type="curve" smooth="yes"/>
      <point x="-626" y="-706" type="line" smooth="yes"/>
      <point x="-626" y="-761"/>
      <point x="-641" y="-812"/>
      <point x="-676" y="-850" type="curve" smooth="yes"/>
      <point x="-710" y="-887"/>
      <point x="-759" y="-906"/>
    </contour>
  </outline>
</glyph>
<glyph name=".notdef" format="1">
  <advance width="1024"/>
  <outline>
    <contour>
      <point x="102" y="0" type="line"/>
      <point x="102" y="890" type="line"/>
      <point x="922" y="890" type="line"/>
      <point x="922" y="0" type="line"/>
    </contour>
    <contour>
      <point x="204" y="102" type="line"/>
      <point x="820" y="102" type="line"/>
      <point x="820" y="788" type="line"/>
      <point x="204" y="788" type="line"/>
    </contour>
  </outline>
</glyph>
